<?xml version="1.0" encoding="UTF-8"?>
<svg version="1.1" xmlns="http://www.w3.org/2000/svg" width="128" height="144">
<path d="M0 0 C5.28 0 10.56 0 16 0 C16 5.28 16 10.56 16 16 C26.56 16 37.12 16 48 16 C48 31.84 48 47.68 48 64 C53.28 64 58.56 64 64 64 C64 69.28 64 74.56 64 80 C58.72 80 53.44 80 48 80 C48 90.56 48 101.12 48 112 C42.72 112 37.44 112 32 112 C32 117.28 32 122.56 32 128 C26.72 128 21.44 128 16 128 C16 122.72 16 117.44 16 112 C5.44 112 -5.12 112 -16 112 C-16 117.28 -16 122.56 -16 128 C-21.28 128 -26.56 128 -32 128 C-32 122.72 -32 117.44 -32 112 C-37.28 112 -42.56 112 -48 112 C-48 101.44 -48 90.88 -48 80 C-53.28 80 -58.56 80 -64 80 C-64 74.72 -64 69.44 -64 64 C-58.72 64 -53.44 64 -48 64 C-48 48.16 -48 32.32 -48 16 C-32.16 16 -16.32 16 0 16 C0 10.72 0 5.44 0 0 Z " fill="#D50000" transform="translate(64,16)"/>
<path d="M0 0 C5.28 0 10.56 0 16 0 C16 10.56 16 21.12 16 32 C10.72 32 5.44 32 0 32 C0 21.44 0 10.88 0 0 Z " fill="#000000" transform="translate(80,64)"/>
<path d="M0 0 C5.28 0 10.56 0 16 0 C16 10.56 16 21.12 16 32 C10.72 32 5.44 32 0 32 C0 21.44 0 10.88 0 0 Z " fill="#000000" transform="translate(32,64)"/>
<path d="M0 0 C5.28 0 10.56 0 16 0 C16 5.28 16 10.56 16 16 C10.72 16 5.44 16 0 16 C0 10.72 0 5.44 0 0 Z " fill="#45B24F" transform="translate(64,16)"/>
<path d="M0 0 C5.28 0 10.56 0 16 0 C16 5.28 16 10.56 16 16 C10.72 16 5.44 16 0 16 C0 10.72 0 5.44 0 0 Z " fill="#45B24F" transform="translate(48,0)"/>
</svg>
