<?xml version="1.0" encoding="UTF-8"?>
<svg xmlns="http://www.w3.org/2000/svg" xmlns:xlink="http://www.w3.org/1999/xlink" width="54px" height="61px" viewBox="0 0 54 60" version="1.1">
<g id="surface1">
<path style=" stroke:none;fill-rule:nonzero;fill:rgb(83.529413%,0%,0%);fill-opacity:1;" d="M 27 6.667969 C 29.226562 6.667969 31.453125 6.667969 33.75 6.667969 C 33.75 8.867188 33.75 11.066406 33.75 13.332031 C 38.203125 13.332031 42.660156 13.332031 47.25 13.332031 C 47.25 19.933594 47.25 26.535156 47.25 33.332031 C 49.476562 33.332031 51.703125 33.332031 54 33.332031 C 54 35.535156 54 37.734375 54 40 C 51.773438 40 49.546875 40 47.25 40 C 47.25 44.398438 47.25 48.800781 47.25 53.332031 C 45.023438 53.332031 42.796875 53.332031 40.5 53.332031 C 40.5 55.535156 40.5 57.734375 40.5 60 C 38.273438 60 36.046875 60 33.75 60 C 33.75 57.800781 33.75 55.601562 33.75 53.332031 C 29.296875 53.332031 24.839844 53.332031 20.25 53.332031 C 20.25 55.535156 20.25 57.734375 20.25 60 C 18.023438 60 15.796875 60 13.5 60 C 13.5 57.800781 13.5 55.601562 13.5 53.332031 C 11.273438 53.332031 9.046875 53.332031 6.75 53.332031 C 6.75 48.933594 6.75 44.535156 6.75 40 C 4.523438 40 2.296875 40 0 40 C 0 37.800781 0 35.601562 0 33.332031 C 2.226562 33.332031 4.453125 33.332031 6.75 33.332031 C 6.75 26.734375 6.75 20.132812 6.75 13.332031 C 13.433594 13.332031 20.113281 13.332031 27 13.332031 C 27 11.132812 27 8.933594 27 6.667969 Z M 27 6.667969 "/>
<path style=" stroke:none;fill-rule:nonzero;fill:rgb(0%,0%,0%);fill-opacity:1;" d="M 33.75 26.667969 C 35.976562 26.667969 38.203125 26.667969 40.5 26.667969 C 40.5 31.066406 40.5 35.464844 40.5 40 C 38.273438 40 36.046875 40 33.75 40 C 33.75 35.601562 33.75 31.199219 33.75 26.667969 Z M 33.75 26.667969 "/>
<path style=" stroke:none;fill-rule:nonzero;fill:rgb(0%,0%,0%);fill-opacity:1;" d="M 13.5 26.667969 C 15.726562 26.667969 17.953125 26.667969 20.25 26.667969 C 20.25 31.066406 20.25 35.464844 20.25 40 C 18.023438 40 15.796875 40 13.5 40 C 13.5 35.601562 13.5 31.199219 13.5 26.667969 Z M 13.5 26.667969 "/>
<path style=" stroke:none;fill-rule:nonzero;fill:rgb(27.058825%,69.803923%,30.980393%);fill-opacity:1;" d="M 27 6.667969 C 29.226562 6.667969 31.453125 6.667969 33.75 6.667969 C 33.75 8.867188 33.75 11.066406 33.75 13.332031 C 31.523438 13.332031 29.296875 13.332031 27 13.332031 C 27 11.132812 27 8.933594 27 6.667969 Z M 27 6.667969 "/>
<path style=" stroke:none;fill-rule:nonzero;fill:rgb(27.058825%,69.803923%,30.980393%);fill-opacity:1;" d="M 20.25 0 C 22.476562 0 24.703125 0 27 0 C 27 2.199219 27 4.398438 27 6.667969 C 24.773438 6.667969 22.546875 6.667969 20.25 6.667969 C 20.25 4.464844 20.25 2.265625 20.25 0 Z M 20.25 0 "/>
</g>
</svg>
